<svg id="visual" viewBox="0 0 960 130" width="960" height="130" xmlns="http://www.w3.org/2000/svg" xmlns:xlink="http://www.w3.org/1999/xlink" version="1.1"><rect x="0" y="0" width="960" height="130" fill="#000000"></rect><path d="M0 114L8.8 113.2C17.7 112.3 35.3 110.7 53.2 106.8C71 103 89 97 106.8 95.3C124.7 93.7 142.3 96.3 160 99.8C177.7 103.3 195.3 107.7 213.2 106.3C231 105 249 98 266.8 98.8C284.7 99.7 302.3 108.3 320 111C337.7 113.7 355.3 110.3 373.2 107.2C391 104 409 101 426.8 102.5C444.7 104 462.3 110 480 108.5C497.7 107 515.3 98 533.2 94.7C551 91.3 569 93.7 586.8 94.2C604.7 94.7 622.3 93.3 640 93.7C657.7 94 675.3 96 693.2 99.5C711 103 729 108 746.8 107.8C764.7 107.7 782.3 102.3 800 100.7C817.7 99 835.3 101 853.2 99.7C871 98.3 889 93.7 906.8 92.3C924.7 91 942.3 93 951.2 94L960 95L960 0L951.2 0C942.3 0 924.7 0 906.8 0C889 0 871 0 853.2 0C835.3 0 817.7 0 800 0C782.3 0 764.7 0 746.8 0C729 0 711 0 693.2 0C675.3 0 657.7 0 640 0C622.3 0 604.7 0 586.8 0C569 0 551 0 533.2 0C515.3 0 497.7 0 480 0C462.3 0 444.7 0 426.8 0C409 0 391 0 373.2 0C355.3 0 337.7 0 320 0C302.3 0 284.7 0 266.8 0C249 0 231 0 213.2 0C195.3 0 177.7 0 160 0C142.3 0 124.7 0 106.8 0C89 0 71 0 53.2 0C35.3 0 17.7 0 8.8 0L0 0Z" fill="#000000"></path><path d="M0 84L8.8 81.2C17.7 78.3 35.3 72.7 53.2 75.2C71 77.7 89 88.3 106.8 92.7C124.7 97 142.3 95 160 93.3C177.7 91.7 195.3 90.3 213.2 91.3C231 92.3 249 95.7 266.8 96.8C284.7 98 302.3 97 320 95.3C337.7 93.7 355.3 91.3 373.2 86.8C391 82.3 409 75.7 426.8 73C444.7 70.3 462.3 71.7 480 74.8C497.7 78 515.3 83 533.2 85.8C551 88.7 569 89.3 586.8 88C604.7 86.7 622.3 83.3 640 83.2C657.7 83 675.3 86 693.2 84.7C711 83.3 729 77.7 746.8 74.5C764.7 71.3 782.3 70.7 800 73.8C817.7 77 835.3 84 853.2 83.3C871 82.7 889 74.3 906.8 73.8C924.7 73.3 942.3 80.7 951.2 84.3L960 88L960 0L951.2 0C942.3 0 924.7 0 906.8 0C889 0 871 0 853.2 0C835.3 0 817.7 0 800 0C782.3 0 764.7 0 746.8 0C729 0 711 0 693.2 0C675.3 0 657.7 0 640 0C622.3 0 604.7 0 586.8 0C569 0 551 0 533.2 0C515.3 0 497.7 0 480 0C462.3 0 444.7 0 426.8 0C409 0 391 0 373.2 0C355.3 0 337.7 0 320 0C302.3 0 284.7 0 266.8 0C249 0 231 0 213.2 0C195.3 0 177.7 0 160 0C142.3 0 124.7 0 106.8 0C89 0 71 0 53.2 0C35.3 0 17.7 0 8.8 0L0 0Z" fill="#0c0707"></path><path d="M0 76L8.8 75C17.7 74 35.3 72 53.2 70.5C71 69 89 68 106.8 65.8C124.7 63.7 142.3 60.3 160 61.7C177.7 63 195.3 69 213.2 68.2C231 67.3 249 59.7 266.8 57.8C284.7 56 302.3 60 320 60.5C337.7 61 355.3 58 373.2 58.7C391 59.3 409 63.7 426.8 63C444.7 62.3 462.3 56.7 480 57.8C497.7 59 515.3 67 533.2 68.5C551 70 569 65 586.8 64.8C604.7 64.7 622.3 69.3 640 70.8C657.7 72.3 675.3 70.7 693.2 68.7C711 66.7 729 64.3 746.8 64.3C764.7 64.3 782.3 66.7 800 68.3C817.7 70 835.3 71 853.2 68.3C871 65.7 889 59.3 906.8 57.5C924.7 55.7 942.3 58.3 951.2 59.7L960 61L960 0L951.2 0C942.3 0 924.7 0 906.8 0C889 0 871 0 853.2 0C835.3 0 817.7 0 800 0C782.3 0 764.7 0 746.8 0C729 0 711 0 693.2 0C675.3 0 657.7 0 640 0C622.3 0 604.7 0 586.8 0C569 0 551 0 533.2 0C515.3 0 497.7 0 480 0C462.3 0 444.7 0 426.8 0C409 0 391 0 373.2 0C355.3 0 337.7 0 320 0C302.3 0 284.7 0 266.8 0C249 0 231 0 213.2 0C195.3 0 177.7 0 160 0C142.3 0 124.7 0 106.8 0C89 0 71 0 53.2 0C35.3 0 17.7 0 8.8 0L0 0Z" fill="#120f0f"></path><path d="M0 42L8.8 43.3C17.7 44.7 35.3 47.3 53.2 47.7C71 48 89 46 106.8 46C124.7 46 142.3 48 160 45.2C177.7 42.3 195.3 34.7 213.2 34.8C231 35 249 43 266.8 46.7C284.7 50.3 302.3 49.7 320 47.5C337.7 45.3 355.3 41.7 373.2 38.8C391 36 409 34 426.8 34.3C444.7 34.7 462.3 37.3 480 39.8C497.7 42.3 515.3 44.7 533.2 47C551 49.3 569 51.7 586.8 50.5C604.7 49.3 622.3 44.7 640 40.7C657.7 36.7 675.3 33.3 693.2 33.8C711 34.3 729 38.7 746.8 40C764.7 41.3 782.3 39.7 800 37.3C817.7 35 835.3 32 853.2 34.8C871 37.7 889 46.3 906.8 50C924.7 53.7 942.3 52.3 951.2 51.7L960 51L960 0L951.2 0C942.3 0 924.7 0 906.8 0C889 0 871 0 853.2 0C835.3 0 817.7 0 800 0C782.3 0 764.7 0 746.8 0C729 0 711 0 693.2 0C675.3 0 657.7 0 640 0C622.3 0 604.7 0 586.8 0C569 0 551 0 533.2 0C515.3 0 497.7 0 480 0C462.3 0 444.7 0 426.8 0C409 0 391 0 373.2 0C355.3 0 337.7 0 320 0C302.3 0 284.7 0 266.8 0C249 0 231 0 213.2 0C195.3 0 177.7 0 160 0C142.3 0 124.7 0 106.8 0C89 0 71 0 53.2 0C35.3 0 17.7 0 8.8 0L0 0Z" fill="#171414"></path><path d="M0 20L8.8 21.2C17.7 22.3 35.3 24.7 53.2 24C71 23.3 89 19.7 106.8 20C124.7 20.3 142.3 24.7 160 27.3C177.7 30 195.3 31 213.2 29.3C231 27.7 249 23.3 266.8 20.5C284.7 17.7 302.3 16.3 320 16.8C337.7 17.3 355.3 19.7 373.2 20.2C391 20.7 409 19.3 426.8 21.3C444.7 23.3 462.3 28.7 480 30C497.7 31.3 515.3 28.7 533.2 26.8C551 25 569 24 586.8 24.3C604.7 24.7 622.3 26.3 640 24C657.7 21.7 675.3 15.3 693.2 14C711 12.7 729 16.3 746.8 20C764.7 23.7 782.3 27.3 800 25.7C817.7 24 835.3 17 853.2 15.7C871 14.3 889 18.7 906.8 22C924.7 25.3 942.3 27.7 951.2 28.8L960 30L960 0L951.2 0C942.3 0 924.7 0 906.8 0C889 0 871 0 853.2 0C835.3 0 817.7 0 800 0C782.3 0 764.7 0 746.8 0C729 0 711 0 693.2 0C675.3 0 657.7 0 640 0C622.3 0 604.7 0 586.8 0C569 0 551 0 533.2 0C515.3 0 497.7 0 480 0C462.3 0 444.7 0 426.8 0C409 0 391 0 373.2 0C355.3 0 337.7 0 320 0C302.3 0 284.7 0 266.8 0C249 0 231 0 213.2 0C195.3 0 177.7 0 160 0C142.3 0 124.7 0 106.8 0C89 0 71 0 53.2 0C35.3 0 17.7 0 8.8 0L0 0Z" fill="#1b1919"></path></svg>