<svg id="visual" viewBox="0 0 960 170" width="960" height="170" xmlns="http://www.w3.org/2000/svg" xmlns:xlink="http://www.w3.org/1999/xlink" version="1.1"><rect x="0" y="0" width="960" height="170" fill="#000000"></rect><path d="M0 120L22.8 123.7C45.7 127.3 91.3 134.7 137 133.7C182.7 132.7 228.3 123.3 274 118.8C319.7 114.3 365.3 114.7 411.2 117.5C457 120.3 503 125.7 548.8 124.5C594.7 123.3 640.3 115.7 686 110.2C731.7 104.7 777.3 101.3 823 99.2C868.7 97 914.3 96 937.2 95.5L960 95L960 0L937.2 0C914.3 0 868.7 0 823 0C777.3 0 731.7 0 686 0C640.3 0 594.7 0 548.8 0C503 0 457 0 411.2 0C365.3 0 319.7 0 274 0C228.3 0 182.7 0 137 0C91.3 0 45.7 0 22.8 0L0 0Z" fill="#000000"></path><path d="M0 80L22.8 80.8C45.7 81.7 91.3 83.3 137 82.3C182.7 81.3 228.3 77.7 274 83.5C319.7 89.3 365.3 104.7 411.2 112C457 119.3 503 118.7 548.8 110.7C594.7 102.7 640.3 87.3 686 81.7C731.7 76 777.3 80 823 84.5C868.7 89 914.3 94 937.2 96.5L960 99L960 0L937.2 0C914.3 0 868.7 0 823 0C777.3 0 731.7 0 686 0C640.3 0 594.7 0 548.8 0C503 0 457 0 411.2 0C365.3 0 319.7 0 274 0C228.3 0 182.7 0 137 0C91.3 0 45.7 0 22.8 0L0 0Z" fill="#710000"></path><path d="M0 75L22.8 71.5C45.7 68 91.3 61 137 60.8C182.7 60.7 228.3 67.3 274 65.2C319.7 63 365.3 52 411.2 54.3C457 56.7 503 72.3 548.8 74C594.7 75.7 640.3 63.3 686 58C731.7 52.7 777.3 54.3 823 59.3C868.7 64.3 914.3 72.7 937.2 76.8L960 81L960 0L937.2 0C914.3 0 868.7 0 823 0C777.3 0 731.7 0 686 0C640.3 0 594.7 0 548.8 0C503 0 457 0 411.2 0C365.3 0 319.7 0 274 0C228.3 0 182.7 0 137 0C91.3 0 45.7 0 22.8 0L0 0Z" fill="#a30000"></path><path d="M0 39L22.8 44.3C45.7 49.7 91.3 60.3 137 64.8C182.7 69.3 228.3 67.7 274 65.2C319.7 62.7 365.3 59.3 411.2 59C457 58.7 503 61.3 548.8 56.2C594.7 51 640.3 38 686 32.7C731.7 27.3 777.3 29.7 823 34.3C868.7 39 914.3 46 937.2 49.5L960 53L960 0L937.2 0C914.3 0 868.7 0 823 0C777.3 0 731.7 0 686 0C640.3 0 594.7 0 548.8 0C503 0 457 0 411.2 0C365.3 0 319.7 0 274 0C228.3 0 182.7 0 137 0C91.3 0 45.7 0 22.8 0L0 0Z" fill="#d01c01"></path><path d="M0 41L22.8 39.8C45.7 38.7 91.3 36.3 137 30.8C182.7 25.3 228.3 16.7 274 16.7C319.7 16.7 365.3 25.3 411.2 28.8C457 32.3 503 30.7 548.8 31.5C594.7 32.3 640.3 35.7 686 32.8C731.7 30 777.3 21 823 22C868.7 23 914.3 34 937.2 39.5L960 45L960 0L937.2 0C914.3 0 868.7 0 823 0C777.3 0 731.7 0 686 0C640.3 0 594.7 0 548.8 0C503 0 457 0 411.2 0C365.3 0 319.7 0 274 0C228.3 0 182.7 0 137 0C91.3 0 45.7 0 22.8 0L0 0Z" fill="#ff3400"></path></svg>